<mxfile host="app.diagrams.net" modified="2022-09-02T19:16:27.056Z" agent="5.0 (Windows NT 10.0; Win64; x64) AppleWebKit/537.36 (KHTML, like Gecko) Chrome/104.0.0.0 Safari/537.36" etag="QEPg47AXWe5wfQmTqoSy" version="20.2.8" type="github">
  <diagram id="R2lEEEUBdFMjLlhIrx00" name="Page-1">
    <mxGraphModel dx="1630" dy="695" grid="1" gridSize="10" guides="1" tooltips="1" connect="1" arrows="1" fold="1" page="1" pageScale="1" pageWidth="850" pageHeight="1100" math="0" shadow="0" extFonts="Permanent Marker^https://fonts.googleapis.com/css?family=Permanent+Marker">
      <root>
        <mxCell id="0" />
        <mxCell id="1" parent="0" />
        <mxCell id="C-vyLk0tnHw3VtMMgP7b-12" value="" style="edgeStyle=entityRelationEdgeStyle;endArrow=ERzeroToMany;startArrow=ERone;endFill=1;startFill=0;" parent="1" edge="1">
          <mxGeometry width="100" height="100" relative="1" as="geometry">
            <mxPoint x="700" y="165" as="sourcePoint" />
            <mxPoint x="700" y="355" as="targetPoint" />
          </mxGeometry>
        </mxCell>
        <mxCell id="NeT5kfElJdYGRsUYVS20-1" value="BANCOS" style="rounded=0;whiteSpace=wrap;html=1;" vertex="1" parent="1">
          <mxGeometry x="-570" y="20" width="120" height="60" as="geometry" />
        </mxCell>
        <mxCell id="NeT5kfElJdYGRsUYVS20-2" value="POLO REGIONAL" style="rounded=0;whiteSpace=wrap;html=1;" vertex="1" parent="1">
          <mxGeometry x="-570" y="130" width="120" height="60" as="geometry" />
        </mxCell>
        <mxCell id="NeT5kfElJdYGRsUYVS20-3" value="AGÊNCIA" style="rounded=0;whiteSpace=wrap;html=1;" vertex="1" parent="1">
          <mxGeometry x="-570" y="240" width="120" height="60" as="geometry" />
        </mxCell>
        <mxCell id="NeT5kfElJdYGRsUYVS20-4" value="CONTA CORRENTE" style="rounded=0;whiteSpace=wrap;html=1;" vertex="1" parent="1">
          <mxGeometry x="-570" y="470" width="120" height="60" as="geometry" />
        </mxCell>
        <mxCell id="NeT5kfElJdYGRsUYVS20-5" value="PRODUTOS" style="rounded=0;whiteSpace=wrap;html=1;" vertex="1" parent="1">
          <mxGeometry x="-570" y="580" width="120" height="60" as="geometry" />
        </mxCell>
        <mxCell id="NeT5kfElJdYGRsUYVS20-6" value="SUPERINTENDENTE" style="rounded=0;whiteSpace=wrap;html=1;" vertex="1" parent="1">
          <mxGeometry x="-390" y="240" width="120" height="60" as="geometry" />
        </mxCell>
        <mxCell id="NeT5kfElJdYGRsUYVS20-7" value="GERENTE" style="rounded=0;whiteSpace=wrap;html=1;" vertex="1" parent="1">
          <mxGeometry x="-390" y="350" width="120" height="60" as="geometry" />
        </mxCell>
        <mxCell id="NeT5kfElJdYGRsUYVS20-8" value="CLIENTE" style="rounded=0;whiteSpace=wrap;html=1;" vertex="1" parent="1">
          <mxGeometry x="-390" y="470" width="120" height="60" as="geometry" />
        </mxCell>
        <mxCell id="NeT5kfElJdYGRsUYVS20-9" value="CARTÃO" style="rounded=0;whiteSpace=wrap;html=1;" vertex="1" parent="1">
          <mxGeometry x="-210" y="470" width="120" height="60" as="geometry" />
        </mxCell>
        <mxCell id="NeT5kfElJdYGRsUYVS20-10" value="" style="fontSize=12;html=1;endArrow=ERoneToMany;startArrow=ERmandOne;exitX=0.5;exitY=1;exitDx=0;exitDy=0;rounded=0;entryX=0.5;entryY=0;entryDx=0;entryDy=0;" edge="1" parent="1" source="NeT5kfElJdYGRsUYVS20-1" target="NeT5kfElJdYGRsUYVS20-2">
          <mxGeometry width="100" height="100" relative="1" as="geometry">
            <mxPoint x="-425" y="140" as="sourcePoint" />
            <mxPoint x="-510" y="190" as="targetPoint" />
          </mxGeometry>
        </mxCell>
        <mxCell id="NeT5kfElJdYGRsUYVS20-11" value="" style="fontSize=12;html=1;endArrow=ERoneToMany;startArrow=ERmandOne;rounded=0;exitX=0.5;exitY=1;exitDx=0;exitDy=0;entryX=0.5;entryY=0;entryDx=0;entryDy=0;" edge="1" parent="1" source="NeT5kfElJdYGRsUYVS20-2" target="NeT5kfElJdYGRsUYVS20-3">
          <mxGeometry width="100" height="100" relative="1" as="geometry">
            <mxPoint x="-450" y="290" as="sourcePoint" />
            <mxPoint x="-350" y="190" as="targetPoint" />
          </mxGeometry>
        </mxCell>
        <mxCell id="NeT5kfElJdYGRsUYVS20-12" value="" style="edgeStyle=entityRelationEdgeStyle;fontSize=12;html=1;endArrow=ERmandOne;startArrow=ERmandOne;rounded=0;entryX=0;entryY=0.5;entryDx=0;entryDy=0;exitX=1;exitY=0.5;exitDx=0;exitDy=0;" edge="1" parent="1" source="NeT5kfElJdYGRsUYVS20-3" target="NeT5kfElJdYGRsUYVS20-6">
          <mxGeometry width="100" height="100" relative="1" as="geometry">
            <mxPoint x="-330" y="380" as="sourcePoint" />
            <mxPoint x="-230" y="280" as="targetPoint" />
          </mxGeometry>
        </mxCell>
        <mxCell id="NeT5kfElJdYGRsUYVS20-13" value="" style="fontSize=12;html=1;endArrow=ERzeroToMany;startArrow=ERmandOne;rounded=0;exitX=0.5;exitY=1;exitDx=0;exitDy=0;entryX=0.5;entryY=0;entryDx=0;entryDy=0;" edge="1" parent="1" source="NeT5kfElJdYGRsUYVS20-6" target="NeT5kfElJdYGRsUYVS20-7">
          <mxGeometry width="100" height="100" relative="1" as="geometry">
            <mxPoint x="-330" y="380" as="sourcePoint" />
            <mxPoint x="-260" y="340" as="targetPoint" />
            <Array as="points" />
          </mxGeometry>
        </mxCell>
        <mxCell id="NeT5kfElJdYGRsUYVS20-14" value="" style="fontSize=12;html=1;endArrow=ERzeroToMany;startArrow=ERmandOne;rounded=0;entryX=0.5;entryY=0;entryDx=0;entryDy=0;exitX=0.5;exitY=1;exitDx=0;exitDy=0;" edge="1" parent="1" source="NeT5kfElJdYGRsUYVS20-3" target="NeT5kfElJdYGRsUYVS20-4">
          <mxGeometry width="100" height="100" relative="1" as="geometry">
            <mxPoint x="-630" y="400" as="sourcePoint" />
            <mxPoint x="-530" y="300" as="targetPoint" />
          </mxGeometry>
        </mxCell>
        <mxCell id="NeT5kfElJdYGRsUYVS20-15" value="" style="edgeStyle=entityRelationEdgeStyle;fontSize=12;html=1;endArrow=ERmandOne;startArrow=ERmandOne;rounded=0;exitX=1;exitY=0.5;exitDx=0;exitDy=0;entryX=0;entryY=0.5;entryDx=0;entryDy=0;" edge="1" parent="1" source="NeT5kfElJdYGRsUYVS20-4" target="NeT5kfElJdYGRsUYVS20-8">
          <mxGeometry width="100" height="100" relative="1" as="geometry">
            <mxPoint x="-460" y="510" as="sourcePoint" />
            <mxPoint x="-360" y="410" as="targetPoint" />
          </mxGeometry>
        </mxCell>
        <mxCell id="NeT5kfElJdYGRsUYVS20-16" value="" style="edgeStyle=entityRelationEdgeStyle;fontSize=12;html=1;endArrow=ERzeroToOne;startArrow=ERmandOne;rounded=0;exitX=1;exitY=0.5;exitDx=0;exitDy=0;entryX=0;entryY=0.5;entryDx=0;entryDy=0;" edge="1" parent="1" source="NeT5kfElJdYGRsUYVS20-8" target="NeT5kfElJdYGRsUYVS20-9">
          <mxGeometry width="100" height="100" relative="1" as="geometry">
            <mxPoint x="-250" y="440" as="sourcePoint" />
            <mxPoint x="-150" y="340" as="targetPoint" />
          </mxGeometry>
        </mxCell>
        <mxCell id="NeT5kfElJdYGRsUYVS20-17" value="" style="edgeStyle=orthogonalEdgeStyle;fontSize=12;html=1;endArrow=ERzeroToMany;endFill=1;startArrow=ERzeroToMany;rounded=0;exitX=1;exitY=0.5;exitDx=0;exitDy=0;entryX=0.5;entryY=1;entryDx=0;entryDy=0;" edge="1" parent="1" source="NeT5kfElJdYGRsUYVS20-5" target="NeT5kfElJdYGRsUYVS20-8">
          <mxGeometry width="100" height="100" relative="1" as="geometry">
            <mxPoint x="-390" y="640" as="sourcePoint" />
            <mxPoint x="-290" y="540" as="targetPoint" />
          </mxGeometry>
        </mxCell>
        <mxCell id="NeT5kfElJdYGRsUYVS20-18" value="" style="edgeStyle=orthogonalEdgeStyle;fontSize=12;html=1;endArrow=ERzeroToMany;endFill=1;startArrow=ERzeroToMany;rounded=0;exitX=0;exitY=0.5;exitDx=0;exitDy=0;entryX=0;entryY=0.5;entryDx=0;entryDy=0;" edge="1" parent="1" source="NeT5kfElJdYGRsUYVS20-5" target="NeT5kfElJdYGRsUYVS20-4">
          <mxGeometry width="100" height="100" relative="1" as="geometry">
            <mxPoint x="-670" y="600" as="sourcePoint" />
            <mxPoint x="-600" y="500" as="targetPoint" />
          </mxGeometry>
        </mxCell>
      </root>
    </mxGraphModel>
  </diagram>
</mxfile>
